<?xml version="1.0" encoding="UTF-8"?>
<svg version="1.1" xmlns="http://www.w3.org/2000/svg" width="360" height="360">
<path d="M0 0 C118.8 0 237.6 0 360 0 C360 118.8 360 237.6 360 360 C241.2 360 122.4 360 0 360 C0 241.2 0 122.4 0 0 Z " fill="#F8FAFA" transform="translate(0,0)"/>
<path d="M0 0 C0.99 0.495 0.99 0.495 2 1 C4.0374763 1.22858114 6.08040303 1.41024278 8.125 1.5625 C10.06375 1.706875 12.0025 1.85125 14 2 C14 9.92 14 17.84 14 26 C21.92 26 29.84 26 38 26 C38 33.92 38 41.84 38 50 C45.92 50 53.84 50 62 50 C62 57.92 62 65.84 62 74 C69.92 74 77.84 74 86 74 C86 81.92 86 89.84 86 98 C93.92 98 101.84 98 110 98 C110 161.36 110 224.72 110 290 C30.8 290 -48.4 290 -130 290 C-130 282.08 -130 274.16 -130 266 C-137.92 266 -145.84 266 -154 266 C-154 258.08 -154 250.16 -154 242 C-161.92 242 -169.84 242 -178 242 C-178 234.08 -178 226.16 -178 218 C-170.08 218 -162.16 218 -154 218 C-154 210.08 -154 202.16 -154 194 C-161.92 194 -169.84 194 -178 194 C-178 186.08 -178 178.16 -178 170 C-170.74 170 -163.48 170 -156 170 C-155.46375 172.68125 -154.9275 175.3625 -154.375 178.125 C-149.35115296 201.3321897 -136.02051482 221.00719304 -116 234 C-95.30513935 245.83231581 -73.05807636 250.39430839 -49.66015625 245.0390625 C-38.84940677 241.97005571 -29.18716702 237.55399474 -20 231 C-19.23300781 230.46761719 -18.46601563 229.93523437 -17.67578125 229.38671875 C0.30252742 216.24027663 11.50638938 196.13759082 15.40014648 174.43701172 C16.58486307 166.71478067 16.4439354 158.88216111 16.39111328 151.08886719 C16.37478673 148.21242573 16.39117491 145.33734092 16.41015625 142.4609375 C16.40817774 140.62499691 16.40434222 138.78905716 16.3984375 136.953125 C16.40754654 135.66888641 16.40754654 135.66888641 16.4168396 134.35870361 C16.51854403 129.95390535 16.51854403 129.95390535 14.47573853 126.25262451 C13.98874481 125.83925842 13.5017511 125.42589233 13 125 C13.33 124.01 13.66 123.02 14 122 C21.92 122 29.84 122 38 122 C38 114.08 38 106.16 38 98 C31.4 98 24.8 98 18 98 C18 104.6 18 111.2 18 118 C17.67 118 17.34 118 17 118 C16.99453156 116.66934006 16.99453156 116.66934006 16.98895264 115.3117981 C16.95077302 106.87012302 16.89358815 98.4288226 16.81609726 89.98741341 C16.77691941 85.64963598 16.74458793 81.31205254 16.72900391 76.97412109 C16.71363834 72.77224186 16.67885247 68.57089711 16.63169098 64.36925888 C16.61707886 62.78210017 16.60897088 61.19486506 16.60811615 59.60763931 C16.5926032 45.21813076 14.90478194 30.49683699 8.5625 17.375 C8.264646 16.7238623 7.96679199 16.07272461 7.65991211 15.40185547 C5.45386608 10.67723529 2.86704849 6.34401286 0 2 C0 1.34 0 0.68 0 0 Z " fill="#FCFEFE" transform="translate(250,70)"/>
<path d="M0 0 C2.86850509 1.43425255 3.15089336 3.33318258 4.4375 6.25 C8.16092048 13.90673966 13.29738502 19.77060387 19 26 C19.63164062 26.70253906 20.26328125 27.40507812 20.9140625 28.12890625 C28.73862852 36.41701291 38.42285207 41.41996911 48.55859375 46.30078125 C52 48 52 48 55 50 C55.31779297 52.98629386 55.44389711 55.76001206 55.43359375 58.75 C55.4388356 59.63671387 55.44407745 60.52342773 55.44947815 61.43701172 C55.45591821 63.32681229 55.45453585 65.21665284 55.44604492 67.10644531 C55.43769572 69.93372368 55.46600013 72.75886772 55.49804688 75.5859375 C55.60324615 102.52317457 47.85991702 125.56285146 28.85546875 145.2421875 C12.1199513 161.40535483 -10.77099015 170.40996575 -33.88525391 170.37109375 C-57.29791385 169.78808499 -78.62279837 159.59269112 -95 143 C-110.49612362 126.07660184 -119 106.02379047 -119 83 C-100.85 83 -82.7 83 -64 83 C-63.34 86.63 -62.68 90.26 -62 94 C-58.00183079 102.93708412 -51.92530493 109.64479595 -42.6796875 113.33984375 C-33.30255178 115.64995444 -23.35298875 114.95265705 -15 110 C-8.0084292 105.49376317 -3.27276384 99.0314591 -1 91 C0.08583267 84.04310454 -0.15995981 76.94203391 -0.1953125 69.921875 C-0.18404511 67.89876737 -0.170157 65.8756728 -0.15377808 63.8526001 C-0.11792718 58.56553183 -0.1173428 53.27904404 -0.12445068 47.99188232 C-0.1253674 42.58172395 -0.09245103 37.17177871 -0.0625 31.76171875 C-0.00881366 21.17441829 0.00756532 10.58742166 0 0 Z " fill="#1DA59D" transform="translate(212,148)"/>
<path d="M0 0 C15.09196331 2.76846006 29.69153692 16.12378173 38.41796875 28.2578125 C51.16522819 46.89289061 55.69841714 66.66593911 55.390625 88.9453125 C55.38313452 90.57867732 55.37745494 92.21205132 55.37347412 93.84542847 C55.35843795 98.07706967 55.31935628 102.3081329 55.2746582 106.53955078 C55.23322045 110.88436063 55.21536123 115.22926688 55.1953125 119.57421875 C55.15283227 128.04973997 55.08486075 136.52479745 55 145 C35.31070361 139.61012005 19.99960436 122.96789998 9.97802734 105.79199219 C3.42420739 93.78374495 -0.13711381 79.25178395 -0.11352539 65.61767578 C-0.11367142 64.90478897 -0.11381744 64.19190216 -0.1139679 63.45741272 C-0.11327572 61.12001415 -0.10551612 58.78269701 -0.09765625 56.4453125 C-0.0957896 54.81721032 -0.09436686 53.18910758 -0.09336853 51.56100464 C-0.08956282 47.28998241 -0.07974926 43.01899455 -0.06866455 38.74798584 C-0.05840848 34.38407862 -0.05386194 30.02016581 -0.04882812 25.65625 C-0.03812515 17.10415095 -0.02107224 8.55207976 0 0 Z " fill="#3E3E3C" transform="translate(212,43)"/>
<path d="M0 0 C3 2 3 2 6 4 C6.66 3.67 7.32 3.34 8 3 C8 3.66 8 4.32 8 5 C10.64738916 6.4606285 11.89448334 7 15 7 C16.175625 7.04125 17.35125 7.0825 18.5625 7.125 C22.06571214 7.38825035 22.06571214 7.38825035 24 5 C24.33 4.01 24.66 3.02 25 2 C27.71778752 4.39991764 29.04563327 6.88314198 30.625 10.125 C38.00598756 23.87140926 50.4441277 31.14912705 64.8359375 36.0546875 C81.56585716 41.05300918 98.15815457 38.34533668 113.32421875 30.21875 C124.57539787 23.36889996 132.0450255 13.60808393 138 2 C138.66 2 139.32 2 140 2 C140.99 4.475 140.99 4.475 142 7 C147.61 7 153.22 7 159 7 C159 11 159 11 158 13 C158.57814453 13.85078125 158.57814453 13.85078125 159.16796875 14.71875 C160 17 160 17 158.61328125 20.03125 C157.86697927 21.20091857 157.09834574 22.35652386 156.3125 23.5 C155.90112793 24.11439941 155.48975586 24.72879883 155.06591797 25.36181641 C141.25022584 45.44655341 120.49687831 59.15991274 96.625 64.375 C73.57404239 67.68276073 50.91422466 62.52177705 31.80859375 49.125 C17.70617527 38.45501995 3.18707721 22.7642908 -1 5 C-0.59375 2.21484375 -0.59375 2.21484375 0 0 Z " fill="#44C5BE" transform="translate(98,253)"/>
<path d="M0 0 C2.86850509 1.43425255 3.15089336 3.33318258 4.4375 6.25 C9.70315487 17.07814813 18.94765185 28.29843457 29 35 C29.36076355 36.79702759 29.36076355 36.79702759 29.34057617 38.99072266 C29.34034958 39.81142242 29.34012299 40.63212219 29.33988953 41.47769165 C29.32440567 42.36419403 29.30892181 43.25069641 29.29296875 44.1640625 C29.28872391 45.07127045 29.28447906 45.97847839 29.28010559 46.91317749 C29.26328133 49.81741732 29.2256226 52.7209691 29.1875 55.625 C29.17245799 57.59113583 29.15876875 59.55728251 29.14648438 61.5234375 C29.11336557 66.34922439 29.06155786 71.17449545 29 76 C28.505 75.01 28.505 75.01 28 74 C26.906875 74.495 25.81375 74.99 24.6875 75.5 C21 77 21 77 18 77 C17.67 77.66 17.34 78.32 17 79 C16.01 79 15.02 79 14 79 C13.67 78.01 13.34 77.02 13 76 C12.01 76.99 11.02 77.98 10 79 C9.01 78.67 8.02 78.34 7 78 C7.226875 77.401875 7.45375 76.80375 7.6875 76.1875 C7.790625 75.465625 7.89375 74.74375 8 74 C6.64555699 72.22809091 6.64555699 72.22809091 5 71 C4.67 71.99 4.34 72.98 4 74 C3.34 74 2.68 74 2 74 C1.67 78.29 1.34 82.58 1 87 C0.67 87 0.34 87 0 87 C0 58.29 0 29.58 0 0 Z " fill="#3DC0B9" transform="translate(212,148)"/>
<path d="M0 0 C10.20047401 2.0400948 18.28468242 8.24909712 26 15 C26.53141602 15.41378906 27.06283203 15.82757813 27.61035156 16.25390625 C29.60533644 18.76060546 29.3567587 20.59736126 29.328125 23.76953125 C29.32296875 24.90583984 29.3178125 26.04214844 29.3125 27.21289062 C29.291875 28.40076172 29.27125 29.58863281 29.25 30.8125 C29.24484375 31.98876953 29.2396875 33.16503906 29.234375 34.37695312 C29.18613089 39.71094297 28.97948684 44.74482739 28 50 C25.5625 49.625 25.5625 49.625 23 49 C22.67 48.34 22.34 47.68 22 47 C21.67 47.66 21.34 48.32 21 49 C20.34 49 19.68 49 19 49 C18.67 49.66 18.34 50.32 18 51 C18 50.34 18 49.68 18 49 C17.34 49 16.68 49 16 49 C15.67 49.66 15.34 50.32 15 51 C15 50.34 15 49.68 15 49 C14.34 49 13.68 49 13 49 C12.67 49.66 12.34 50.32 12 51 C12 50.34 12 49.68 12 49 C11.34 49 10.68 49 10 49 C9.67 49.66 9.34 50.32 9 51 C9 50.34 9 49.68 9 49 C8.34 49 7.68 49 7 49 C6.67 49.66 6.34 50.32 6 51 C6 50.34 6 49.68 6 49 C5.01 49 4.02 49 3 49 C2.67 57.25 2.34 65.5 2 74 C1.34 73.67 0.68 73.34 0 73 C0 48.91 0 24.82 0 0 Z " fill="#30302E" transform="translate(212,43)"/>
<path d="M0 0 C7.92 0 15.84 0 24 0 C24 7.92 24 15.84 24 24 C31.92 24 39.84 24 48 24 C48 31.92 48 39.84 48 48 C36 48 36 48 32 46 C30.4296875 44.37109375 30.4296875 44.37109375 28.875 42.4375 C20.79267466 32.98818517 11.87447591 26.75062343 1 21 C1.33 20.01 1.66 19.02 2 18 C1.34 18 0.68 18 0 18 C0 12.06 0 6.12 0 0 Z " fill="#EEEEEE" transform="translate(216,24)"/>
<path d="M0 0 C0.66 0.33 1.32 0.66 2 1 C2 25.42 2 49.84 2 75 C-3.34715266 73.4722421 -6.08318894 72.6226807 -10.4375 69.75 C-11.30246094 69.18796875 -12.16742188 68.6259375 -13.05859375 68.046875 C-14.02925781 67.37140625 -14.99992188 66.6959375 -16 66 C-16.69617432 65.65445068 -17.39234863 65.30890137 -18.10961914 64.95288086 C-20.64943631 63.5074679 -22.22324102 62.33645006 -24 60 C-25.02632487 55.01346221 -24.79889753 50.11827928 -24.5625 45.0625 C-24.53089607 43.7038552 -24.50287029 42.34512221 -24.47851562 40.98632812 C-24.32522618 34.90584684 -23.93610453 29.01438766 -23 23 C-22.01 23 -21.02 23 -20 23 C-19.67 24.32 -19.34 25.64 -19 27 C-18.071875 26.690625 -18.071875 26.690625 -17.125 26.375 C-16.42375 26.25125 -15.7225 26.1275 -15 26 C-14.34 26.66 -13.68 27.32 -13 28 C-12.484375 27.67 -11.96875 27.34 -11.4375 27 C-8.21973488 25.67989123 -5.4429472 25.86757895 -2 26 C-0.92375586 20.55547082 -0.67807034 15.15417411 -0.4375 9.625 C-0.39431641 8.69816406 -0.35113281 7.77132812 -0.30664062 6.81640625 C-0.20123814 4.54439706 -0.09911394 2.27229075 0 0 Z " fill="#2B2B29" transform="translate(265,113)"/>
<path d="M0 0 C4.65807752 0.77734218 4.65807752 0.77734218 8.8046875 -1.3671875 C9.4646875 -1.0371875 10.1246875 -0.7071875 10.8046875 -0.3671875 C10.8046875 16.7928125 10.8046875 33.9528125 10.8046875 51.6328125 C5.94929569 47.47104809 2.32599898 44.20745152 -1.1953125 39.1328125 C-1.8286853 38.23030762 -1.8286853 38.23030762 -2.47485352 37.30957031 C-8.85700864 27.98636893 -16.1953125 16.21183518 -16.1953125 4.6328125 C-15.5353125 4.6328125 -14.8753125 4.6328125 -14.1953125 4.6328125 C-14.0921875 4.0140625 -13.9890625 3.3953125 -13.8828125 2.7578125 C-11.83663991 -3.56672097 -4.98645213 -0.83403292 0 0 Z " fill="#4D4D4B" transform="translate(230.1953125,120.3671875)"/>
<path d="M0 0 C12.22960012 10.48251439 21.192746 25.83207667 23.8984375 41.93359375 C24.03389058 44.68954286 23.41284141 46.64526432 22 49 C15.25 50.125 15.25 50.125 13 49 C12.67 49.66 12.34 50.32 12 51 C11.2575 50.835 10.515 50.67 9.75 50.5 C6.80993422 49.88074304 6.80993422 49.88074304 3 50 C3 49.34 3 48.68 3 48 C2.34 48 1.68 48 1 48 C0.67 48.66 0.34 49.32 0 50 C0 33.5 0 17 0 0 Z " fill="#4C4C4A" transform="translate(241,62)"/>
<path d="M0 0 C7.92 0 15.84 0 24 0 C24 7.92 24 15.84 24 24 C16.08 24 8.16 24 0 24 C0 16.08 0 8.16 0 0 Z " fill="#EEEEEE" transform="translate(336,336)"/>
<path d="M0 0 C7.92 0 15.84 0 24 0 C24 7.92 24 15.84 24 24 C16.08 24 8.16 24 0 24 C0 16.08 0 8.16 0 0 Z " fill="#FFFFFF" transform="translate(312,336)"/>
<path d="M0 0 C7.92 0 15.84 0 24 0 C24 7.92 24 15.84 24 24 C16.08 24 8.16 24 0 24 C0 16.08 0 8.16 0 0 Z " fill="#EEEEEE" transform="translate(288,336)"/>
<path d="M0 0 C7.92 0 15.84 0 24 0 C24 7.92 24 15.84 24 24 C16.08 24 8.16 24 0 24 C0 16.08 0 8.16 0 0 Z " fill="#FFFFFF" transform="translate(264,336)"/>
<path d="M0 0 C7.92 0 15.84 0 24 0 C24 7.92 24 15.84 24 24 C16.08 24 8.16 24 0 24 C0 16.08 0 8.16 0 0 Z " fill="#EEEEEE" transform="translate(240,336)"/>
<path d="M0 0 C7.92 0 15.84 0 24 0 C24 7.92 24 15.84 24 24 C16.08 24 8.16 24 0 24 C0 16.08 0 8.16 0 0 Z " fill="#FFFFFF" transform="translate(216,336)"/>
<path d="M0 0 C7.92 0 15.84 0 24 0 C24 7.92 24 15.84 24 24 C16.08 24 8.16 24 0 24 C0 16.08 0 8.16 0 0 Z " fill="#EEEEEE" transform="translate(192,336)"/>
<path d="M0 0 C7.92 0 15.84 0 24 0 C24 7.92 24 15.84 24 24 C16.08 24 8.16 24 0 24 C0 16.08 0 8.16 0 0 Z " fill="#FFFFFF" transform="translate(168,336)"/>
<path d="M0 0 C7.92 0 15.84 0 24 0 C24 7.92 24 15.84 24 24 C16.08 24 8.16 24 0 24 C0 16.08 0 8.16 0 0 Z " fill="#EEEEEE" transform="translate(144,336)"/>
<path d="M0 0 C7.92 0 15.84 0 24 0 C24 7.92 24 15.84 24 24 C16.08 24 8.16 24 0 24 C0 16.08 0 8.16 0 0 Z " fill="#FFFFFF" transform="translate(120,336)"/>
<path d="M0 0 C7.92 0 15.84 0 24 0 C24 7.92 24 15.84 24 24 C16.08 24 8.16 24 0 24 C0 16.08 0 8.16 0 0 Z " fill="#EEEEEE" transform="translate(96,336)"/>
<path d="M0 0 C7.92 0 15.84 0 24 0 C24 7.92 24 15.84 24 24 C16.08 24 8.16 24 0 24 C0 16.08 0 8.16 0 0 Z " fill="#FFFFFF" transform="translate(72,336)"/>
<path d="M0 0 C7.92 0 15.84 0 24 0 C24 7.92 24 15.84 24 24 C16.08 24 8.16 24 0 24 C0 16.08 0 8.16 0 0 Z " fill="#EEEEEE" transform="translate(48,336)"/>
<path d="M0 0 C7.92 0 15.84 0 24 0 C24 7.92 24 15.84 24 24 C16.08 24 8.16 24 0 24 C0 16.08 0 8.16 0 0 Z " fill="#FFFFFF" transform="translate(24,336)"/>
<path d="M0 0 C7.92 0 15.84 0 24 0 C24 7.92 24 15.84 24 24 C16.08 24 8.16 24 0 24 C0 16.08 0 8.16 0 0 Z " fill="#EEEEEE" transform="translate(0,336)"/>
<path d="M0 0 C7.92 0 15.84 0 24 0 C24 7.92 24 15.84 24 24 C16.08 24 8.16 24 0 24 C0 16.08 0 8.16 0 0 Z " fill="#FFFFFF" transform="translate(336,312)"/>
<path d="M0 0 C7.92 0 15.84 0 24 0 C24 7.92 24 15.84 24 24 C16.08 24 8.16 24 0 24 C0 16.08 0 8.16 0 0 Z " fill="#EEEEEE" transform="translate(312,312)"/>
<path d="M0 0 C7.92 0 15.84 0 24 0 C24 7.92 24 15.84 24 24 C16.08 24 8.16 24 0 24 C0 16.08 0 8.16 0 0 Z " fill="#FFFFFF" transform="translate(288,312)"/>
<path d="M0 0 C7.92 0 15.84 0 24 0 C24 7.92 24 15.84 24 24 C16.08 24 8.16 24 0 24 C0 16.08 0 8.16 0 0 Z " fill="#EEEEEE" transform="translate(264,312)"/>
<path d="M0 0 C7.92 0 15.84 0 24 0 C24 7.92 24 15.84 24 24 C16.08 24 8.16 24 0 24 C0 16.08 0 8.16 0 0 Z " fill="#FEFEFF" transform="translate(240,312)"/>
<path d="M0 0 C7.92 0 15.84 0 24 0 C24 7.92 24 15.84 24 24 C16.08 24 8.16 24 0 24 C0 16.08 0 8.16 0 0 Z " fill="#EEEEEE" transform="translate(216,312)"/>
<path d="M0 0 C7.92 0 15.84 0 24 0 C24 7.92 24 15.84 24 24 C16.08 24 8.16 24 0 24 C0 16.08 0 8.16 0 0 Z " fill="#EEEEEE" transform="translate(120,312)"/>
<path d="M0 0 C7.92 0 15.84 0 24 0 C24 7.92 24 15.84 24 24 C16.08 24 8.16 24 0 24 C0 16.08 0 8.16 0 0 Z " fill="#FFFFFF" transform="translate(96,312)"/>
<path d="M0 0 C7.92 0 15.84 0 24 0 C24 7.92 24 15.84 24 24 C16.08 24 8.16 24 0 24 C0 16.08 0 8.16 0 0 Z " fill="#EEEEEE" transform="translate(72,312)"/>
<path d="M0 0 C7.92 0 15.84 0 24 0 C24 7.92 24 15.84 24 24 C16.08 24 8.16 24 0 24 C0 16.08 0 8.16 0 0 Z " fill="#FFFFFF" transform="translate(48,312)"/>
<path d="M0 0 C7.92 0 15.84 0 24 0 C24 7.92 24 15.84 24 24 C16.08 24 8.16 24 0 24 C0 16.08 0 8.16 0 0 Z " fill="#EEEEEE" transform="translate(24,312)"/>
<path d="M0 0 C7.92 0 15.84 0 24 0 C24 7.92 24 15.84 24 24 C16.08 24 8.16 24 0 24 C0 16.08 0 8.16 0 0 Z " fill="#FFFFFF" transform="translate(0,312)"/>
<path d="M0 0 C7.92 0 15.84 0 24 0 C24 7.92 24 15.84 24 24 C16.08 24 8.16 24 0 24 C0 16.08 0 8.16 0 0 Z " fill="#EEEEEE" transform="translate(336,288)"/>
<path d="M0 0 C7.92 0 15.84 0 24 0 C24 7.92 24 15.84 24 24 C16.08 24 8.16 24 0 24 C0 16.08 0 8.16 0 0 Z " fill="#FFFFFF" transform="translate(312,288)"/>
<path d="M0 0 C7.92 0 15.84 0 24 0 C24 7.92 24 15.84 24 24 C16.08 24 8.16 24 0 24 C0 16.08 0 8.16 0 0 Z " fill="#EEEEEE" transform="translate(288,288)"/>
<path d="M0 0 C7.92 0 15.84 0 24 0 C24 7.92 24 15.84 24 24 C16.08 24 8.16 24 0 24 C0 16.08 0 8.16 0 0 Z " fill="#FFFFFF" transform="translate(264,288)"/>
<path d="M0 0 C7.92 0 15.84 0 24 0 C24 7.92 24 15.84 24 24 C16.08 24 8.16 24 0 24 C0 16.08 0 8.16 0 0 Z " fill="#FFFFFF" transform="translate(72,288)"/>
<path d="M0 0 C7.92 0 15.84 0 24 0 C24 7.92 24 15.84 24 24 C16.08 24 8.16 24 0 24 C0 16.08 0 8.16 0 0 Z " fill="#EEEEEE" transform="translate(48,288)"/>
<path d="M0 0 C7.92 0 15.84 0 24 0 C24 7.92 24 15.84 24 24 C16.08 24 8.16 24 0 24 C0 16.08 0 8.16 0 0 Z " fill="#FFFFFF" transform="translate(24,288)"/>
<path d="M0 0 C7.92 0 15.84 0 24 0 C24 7.92 24 15.84 24 24 C16.08 24 8.16 24 0 24 C0 16.08 0 8.16 0 0 Z " fill="#EEEEEE" transform="translate(0,288)"/>
<path d="M0 0 C7.92 0 15.84 0 24 0 C24 7.92 24 15.84 24 24 C16.08 24 8.16 24 0 24 C0 16.08 0 8.16 0 0 Z " fill="#FFFFFF" transform="translate(336,264)"/>
<path d="M0 0 C7.92 0 15.84 0 24 0 C24 7.92 24 15.84 24 24 C16.08 24 8.16 24 0 24 C0 16.08 0 8.16 0 0 Z " fill="#EEEEEE" transform="translate(312,264)"/>
<path d="M0 0 C7.92 0 15.84 0 24 0 C24 7.92 24 15.84 24 24 C16.08 24 8.16 24 0 24 C0 16.08 0 8.16 0 0 Z " fill="#FFFFFF" transform="translate(288,264)"/>
<path d="M0 0 C7.92 0 15.84 0 24 0 C24 7.92 24 15.84 24 24 C16.08 24 8.16 24 0 24 C0 16.08 0 8.16 0 0 Z " fill="#EEEEEE" transform="translate(264,264)"/>
<path d="M0 0 C7.92 0 15.84 0 24 0 C24 7.92 24 15.84 24 24 C16.08 24 8.16 24 0 24 C0 16.08 0 8.16 0 0 Z " fill="#EEEEEE" transform="translate(72,264)"/>
<path d="M0 0 C7.92 0 15.84 0 24 0 C24 7.92 24 15.84 24 24 C16.08 24 8.16 24 0 24 C0 16.08 0 8.16 0 0 Z " fill="#FFFFFF" transform="translate(48,264)"/>
<path d="M0 0 C7.92 0 15.84 0 24 0 C24 7.92 24 15.84 24 24 C16.08 24 8.16 24 0 24 C0 16.08 0 8.16 0 0 Z " fill="#EEEEEE" transform="translate(24,264)"/>
<path d="M0 0 C7.92 0 15.84 0 24 0 C24 7.92 24 15.84 24 24 C16.08 24 8.16 24 0 24 C0 16.08 0 8.16 0 0 Z " fill="#FFFFFF" transform="translate(0,264)"/>
<path d="M0 0 C7.92 0 15.84 0 24 0 C24 7.92 24 15.84 24 24 C16.08 24 8.16 24 0 24 C0 16.08 0 8.16 0 0 Z " fill="#EEEEEE" transform="translate(336,240)"/>
<path d="M0 0 C7.92 0 15.84 0 24 0 C24 7.92 24 15.84 24 24 C16.08 24 8.16 24 0 24 C0 16.08 0 8.16 0 0 Z " fill="#FFFFFF" transform="translate(312,240)"/>
<path d="M0 0 C7.92 0 15.84 0 24 0 C24 7.92 24 15.84 24 24 C16.08 24 8.16 24 0 24 C0 16.08 0 8.16 0 0 Z " fill="#EEEEEE" transform="translate(288,240)"/>
<path d="M0 0 C7.92 0 15.84 0 24 0 C24 7.92 24 15.84 24 24 C16.08 24 8.16 24 0 24 C0 16.08 0 8.16 0 0 Z " fill="#EEEEEE" transform="translate(48,240)"/>
<path d="M0 0 C7.92 0 15.84 0 24 0 C24 7.92 24 15.84 24 24 C16.08 24 8.16 24 0 24 C0 16.08 0 8.16 0 0 Z " fill="#FFFFFF" transform="translate(24,240)"/>
<path d="M0 0 C7.92 0 15.84 0 24 0 C24 7.92 24 15.84 24 24 C16.08 24 8.16 24 0 24 C0 16.08 0 8.16 0 0 Z " fill="#EEEEEE" transform="translate(0,240)"/>
<path d="M0 0 C7.92 0 15.84 0 24 0 C24 7.92 24 15.84 24 24 C16.08 24 8.16 24 0 24 C0 16.08 0 8.16 0 0 Z " fill="#FFFFFF" transform="translate(336,216)"/>
<path d="M0 0 C7.92 0 15.84 0 24 0 C24 7.92 24 15.84 24 24 C16.08 24 8.16 24 0 24 C0 16.08 0 8.16 0 0 Z " fill="#EEEEEE" transform="translate(312,216)"/>
<path d="M0 0 C7.92 0 15.84 0 24 0 C24 7.92 24 15.84 24 24 C16.08 24 8.16 24 0 24 C0 16.08 0 8.16 0 0 Z " fill="#FFFFFF" transform="translate(288,216)"/>
<path d="M0 0 C7.92 0 15.84 0 24 0 C24 7.92 24 15.84 24 24 C16.08 24 8.16 24 0 24 C0 16.08 0 8.16 0 0 Z " fill="#FFFFFF" transform="translate(48,216)"/>
<path d="M0 0 C7.92 0 15.84 0 24 0 C24 7.92 24 15.84 24 24 C16.08 24 8.16 24 0 24 C0 16.08 0 8.16 0 0 Z " fill="#EEEEEE" transform="translate(24,216)"/>
<path d="M0 0 C7.92 0 15.84 0 24 0 C24 7.92 24 15.84 24 24 C16.08 24 8.16 24 0 24 C0 16.08 0 8.16 0 0 Z " fill="#FFFFFF" transform="translate(0,216)"/>
<path d="M0 0 C7.92 0 15.84 0 24 0 C24 7.92 24 15.84 24 24 C16.08 24 8.16 24 0 24 C0 16.08 0 8.16 0 0 Z " fill="#EEEEEE" transform="translate(336,192)"/>
<path d="M0 0 C7.92 0 15.84 0 24 0 C24 7.92 24 15.84 24 24 C16.08 24 8.16 24 0 24 C0 16.08 0 8.16 0 0 Z " fill="#FFFFFF" transform="translate(312,192)"/>
<path d="M0 0 C7.92 0 15.84 0 24 0 C24 7.92 24 15.84 24 24 C16.08 24 8.16 24 0 24 C0 16.08 0 8.16 0 0 Z " fill="#EEEEEE" transform="translate(288,192)"/>
<path d="M0 0 C7.92 0 15.84 0 24 0 C24 7.92 24 15.84 24 24 C16.08 24 8.16 24 0 24 C0 16.08 0 8.16 0 0 Z " fill="#FFFFFF" transform="translate(168,192)"/>
<path d="M0 0 C7.92 0 15.84 0 24 0 C24 7.92 24 15.84 24 24 C16.08 24 8.16 24 0 24 C0 16.08 0 8.16 0 0 Z " fill="#EEEEEE" transform="translate(144,192)"/>
<path d="M0 0 C7.92 0 15.84 0 24 0 C24 7.92 24 15.84 24 24 C16.08 24 8.16 24 0 24 C0 16.08 0 8.16 0 0 Z " fill="#FFFFFF" transform="translate(120,192)"/>
<path d="M0 0 C7.92 0 15.84 0 24 0 C24 7.92 24 15.84 24 24 C16.08 24 8.16 24 0 24 C0 16.08 0 8.16 0 0 Z " fill="#EEEEEE" transform="translate(96,192)"/>
<path d="M0 0 C7.92 0 15.84 0 24 0 C24 7.92 24 15.84 24 24 C16.08 24 8.16 24 0 24 C0 16.08 0 8.16 0 0 Z " fill="#FFFFFF" transform="translate(72,192)"/>
<path d="M0 0 C7.92 0 15.84 0 24 0 C24 7.92 24 15.84 24 24 C16.08 24 8.16 24 0 24 C0 16.08 0 8.16 0 0 Z " fill="#EEEEEE" transform="translate(48,192)"/>
<path d="M0 0 C7.92 0 15.84 0 24 0 C24 7.92 24 15.84 24 24 C16.08 24 8.16 24 0 24 C0 16.08 0 8.16 0 0 Z " fill="#FFFFFF" transform="translate(24,192)"/>
<path d="M0 0 C7.92 0 15.84 0 24 0 C24 7.92 24 15.84 24 24 C16.08 24 8.16 24 0 24 C0 16.08 0 8.16 0 0 Z " fill="#EEEEEE" transform="translate(0,192)"/>
<path d="M0 0 C7.92 0 15.84 0 24 0 C24 7.92 24 15.84 24 24 C16.08 24 8.16 24 0 24 C0 16.08 0 8.16 0 0 Z " fill="#FFFFFF" transform="translate(336,168)"/>
<path d="M0 0 C7.92 0 15.84 0 24 0 C24 7.92 24 15.84 24 24 C16.08 24 8.16 24 0 24 C0 16.08 0 8.16 0 0 Z " fill="#EEEEEE" transform="translate(312,168)"/>
<path d="M0 0 C7.92 0 15.84 0 24 0 C24 7.92 24 15.84 24 24 C16.08 24 8.16 24 0 24 C0 16.08 0 8.16 0 0 Z " fill="#FFFFFF" transform="translate(288,168)"/>
<path d="M0 0 C7.92 0 15.84 0 24 0 C24 7.92 24 15.84 24 24 C16.08 24 8.16 24 0 24 C0 16.08 0 8.16 0 0 Z " fill="#EEEEEE" transform="translate(168,168)"/>
<path d="M0 0 C7.92 0 15.84 0 24 0 C24 7.92 24 15.84 24 24 C16.08 24 8.16 24 0 24 C0 16.08 0 8.16 0 0 Z " fill="#FFFFFF" transform="translate(144,168)"/>
<path d="M0 0 C7.92 0 15.84 0 24 0 C24 7.92 24 15.84 24 24 C16.08 24 8.16 24 0 24 C0 16.08 0 8.16 0 0 Z " fill="#EEEEEE" transform="translate(120,168)"/>
<path d="M0 0 C7.92 0 15.84 0 24 0 C24 7.92 24 15.84 24 24 C16.08 24 8.16 24 0 24 C0 16.08 0 8.16 0 0 Z " fill="#FFFFFF" transform="translate(96,168)"/>
<path d="M0 0 C7.92 0 15.84 0 24 0 C24 7.92 24 15.84 24 24 C16.08 24 8.16 24 0 24 C0 16.08 0 8.16 0 0 Z " fill="#EEEEEE" transform="translate(72,168)"/>
<path d="M0 0 C7.92 0 15.84 0 24 0 C24 7.92 24 15.84 24 24 C16.08 24 8.16 24 0 24 C0 16.08 0 8.16 0 0 Z " fill="#FFFFFF" transform="translate(48,168)"/>
<path d="M0 0 C7.92 0 15.84 0 24 0 C24 7.92 24 15.84 24 24 C16.08 24 8.16 24 0 24 C0 16.08 0 8.16 0 0 Z " fill="#EEEEEE" transform="translate(24,168)"/>
<path d="M0 0 C7.92 0 15.84 0 24 0 C24 7.92 24 15.84 24 24 C16.08 24 8.16 24 0 24 C0 16.08 0 8.16 0 0 Z " fill="#FFFFFF" transform="translate(0,168)"/>
<path d="M0 0 C7.92 0 15.84 0 24 0 C24 7.92 24 15.84 24 24 C16.08 24 8.16 24 0 24 C0 16.08 0 8.16 0 0 Z " fill="#EEEEEE" transform="translate(336,144)"/>
<path d="M0 0 C7.92 0 15.84 0 24 0 C24 7.92 24 15.84 24 24 C16.08 24 8.16 24 0 24 C0 16.08 0 8.16 0 0 Z " fill="#FFFFFF" transform="translate(312,144)"/>
<path d="M0 0 C7.92 0 15.84 0 24 0 C24 7.92 24 15.84 24 24 C16.08 24 8.16 24 0 24 C0 16.08 0 8.16 0 0 Z " fill="#EEEEEE" transform="translate(288,144)"/>
<path d="M0 0 C7.92 0 15.84 0 24 0 C24 7.92 24 15.84 24 24 C16.08 24 8.16 24 0 24 C0 16.08 0 8.16 0 0 Z " fill="#FFFFFF" transform="translate(168,144)"/>
<path d="M0 0 C7.92 0 15.84 0 24 0 C24 7.92 24 15.84 24 24 C16.08 24 8.16 24 0 24 C0 16.08 0 8.16 0 0 Z " fill="#EEEEEE" transform="translate(144,144)"/>
<path d="M0 0 C7.92 0 15.84 0 24 0 C24 7.92 24 15.84 24 24 C16.08 24 8.16 24 0 24 C0 16.08 0 8.16 0 0 Z " fill="#FFFFFF" transform="translate(120,144)"/>
<path d="M0 0 C7.92 0 15.84 0 24 0 C24 7.92 24 15.84 24 24 C16.08 24 8.16 24 0 24 C0 16.08 0 8.16 0 0 Z " fill="#EEEEEE" transform="translate(96,144)"/>
<path d="M0 0 C7.92 0 15.84 0 24 0 C24 7.92 24 15.84 24 24 C16.08 24 8.16 24 0 24 C0 16.08 0 8.16 0 0 Z " fill="#FFFFFF" transform="translate(72,144)"/>
<path d="M0 0 C7.92 0 15.84 0 24 0 C24 7.92 24 15.84 24 24 C16.08 24 8.16 24 0 24 C0 16.08 0 8.16 0 0 Z " fill="#EEEEEE" transform="translate(48,144)"/>
<path d="M0 0 C7.92 0 15.84 0 24 0 C24 7.92 24 15.84 24 24 C16.08 24 8.16 24 0 24 C0 16.08 0 8.16 0 0 Z " fill="#FFFFFF" transform="translate(24,144)"/>
<path d="M0 0 C7.92 0 15.84 0 24 0 C24 7.92 24 15.84 24 24 C16.08 24 8.16 24 0 24 C0 16.08 0 8.16 0 0 Z " fill="#EEEEEE" transform="translate(0,144)"/>
<path d="M0 0 C7.92 0 15.84 0 24 0 C24 7.92 24 15.84 24 24 C16.08 24 8.16 24 0 24 C0 16.08 0 8.16 0 0 Z " fill="#FFFFFF" transform="translate(336,120)"/>
<path d="M0 0 C7.92 0 15.84 0 24 0 C24 7.92 24 15.84 24 24 C16.08 24 8.16 24 0 24 C0 16.08 0 8.16 0 0 Z " fill="#EEEEEE" transform="translate(312,120)"/>
<path d="M0 0 C7.92 0 15.84 0 24 0 C24 7.92 24 15.84 24 24 C16.08 24 8.16 24 0 24 C0 16.08 0 8.16 0 0 Z " fill="#FFFFFF" transform="translate(288,120)"/>
<path d="M0 0 C7.92 0 15.84 0 24 0 C24 7.92 24 15.84 24 24 C16.08 24 8.16 24 0 24 C0 16.08 0 8.16 0 0 Z " fill="#EEEEEE" transform="translate(168,120)"/>
<path d="M0 0 C7.92 0 15.84 0 24 0 C24 7.92 24 15.84 24 24 C16.08 24 8.16 24 0 24 C0 16.08 0 8.16 0 0 Z " fill="#FFFFFF" transform="translate(144,120)"/>
<path d="M0 0 C7.92 0 15.84 0 24 0 C24 7.92 24 15.84 24 24 C16.08 24 8.16 24 0 24 C0 16.08 0 8.16 0 0 Z " fill="#EEEEEE" transform="translate(120,120)"/>
<path d="M0 0 C7.92 0 15.84 0 24 0 C24 7.92 24 15.84 24 24 C16.08 24 8.16 24 0 24 C0 16.08 0 8.16 0 0 Z " fill="#FFFFFF" transform="translate(96,120)"/>
<path d="M0 0 C7.92 0 15.84 0 24 0 C24 7.92 24 15.84 24 24 C16.08 24 8.16 24 0 24 C0 16.08 0 8.16 0 0 Z " fill="#EEEEEE" transform="translate(72,120)"/>
<path d="M0 0 C7.92 0 15.84 0 24 0 C24 7.92 24 15.84 24 24 C16.08 24 8.16 24 0 24 C0 16.08 0 8.16 0 0 Z " fill="#FFFFFF" transform="translate(48,120)"/>
<path d="M0 0 C7.92 0 15.84 0 24 0 C24 7.92 24 15.84 24 24 C16.08 24 8.16 24 0 24 C0 16.08 0 8.16 0 0 Z " fill="#EEEEEE" transform="translate(24,120)"/>
<path d="M0 0 C7.92 0 15.84 0 24 0 C24 7.92 24 15.84 24 24 C16.08 24 8.16 24 0 24 C0 16.08 0 8.16 0 0 Z " fill="#FFFFFF" transform="translate(0,120)"/>
<path d="M0 0 C7.92 0 15.84 0 24 0 C24 7.92 24 15.84 24 24 C16.08 24 8.16 24 0 24 C0 16.08 0 8.16 0 0 Z " fill="#EEEEEE" transform="translate(336,96)"/>
<path d="M0 0 C7.92 0 15.84 0 24 0 C24 7.92 24 15.84 24 24 C16.08 24 8.16 24 0 24 C0 16.08 0 8.16 0 0 Z " fill="#FFFFFF" transform="translate(312,96)"/>
<path d="M0 0 C7.92 0 15.84 0 24 0 C24 7.92 24 15.84 24 24 C16.08 24 8.16 24 0 24 C0 16.08 0 8.16 0 0 Z " fill="#EEEEEE" transform="translate(288,96)"/>
<path d="M0 0 C7.92 0 15.84 0 24 0 C24 7.92 24 15.84 24 24 C16.08 24 8.16 24 0 24 C0 16.08 0 8.16 0 0 Z " fill="#FFFFFF" transform="translate(168,96)"/>
<path d="M0 0 C7.92 0 15.84 0 24 0 C24 7.92 24 15.84 24 24 C16.08 24 8.16 24 0 24 C0 16.08 0 8.16 0 0 Z " fill="#EEEEEE" transform="translate(144,96)"/>
<path d="M0 0 C7.92 0 15.84 0 24 0 C24 7.92 24 15.84 24 24 C16.08 24 8.16 24 0 24 C0 16.08 0 8.16 0 0 Z " fill="#FFFFFF" transform="translate(120,96)"/>
<path d="M0 0 C7.92 0 15.84 0 24 0 C24 7.92 24 15.84 24 24 C16.08 24 8.16 24 0 24 C0 16.08 0 8.16 0 0 Z " fill="#EEEEEE" transform="translate(96,96)"/>
<path d="M0 0 C7.92 0 15.84 0 24 0 C24 7.92 24 15.84 24 24 C16.08 24 8.16 24 0 24 C0 16.08 0 8.16 0 0 Z " fill="#FFFFFF" transform="translate(72,96)"/>
<path d="M0 0 C7.92 0 15.84 0 24 0 C24 7.92 24 15.84 24 24 C16.08 24 8.16 24 0 24 C0 16.08 0 8.16 0 0 Z " fill="#EEEEEE" transform="translate(48,96)"/>
<path d="M0 0 C7.92 0 15.84 0 24 0 C24 7.92 24 15.84 24 24 C16.08 24 8.16 24 0 24 C0 16.08 0 8.16 0 0 Z " fill="#FFFFFF" transform="translate(24,96)"/>
<path d="M0 0 C7.92 0 15.84 0 24 0 C24 7.92 24 15.84 24 24 C16.08 24 8.16 24 0 24 C0 16.08 0 8.16 0 0 Z " fill="#EEEEEE" transform="translate(0,96)"/>
<path d="M0 0 C7.92 0 15.84 0 24 0 C24 7.92 24 15.84 24 24 C16.08 24 8.16 24 0 24 C0 16.08 0 8.16 0 0 Z " fill="#FFFFFF" transform="translate(336,72)"/>
<path d="M0 0 C7.92 0 15.84 0 24 0 C24 7.92 24 15.84 24 24 C16.08 24 8.16 24 0 24 C0 16.08 0 8.16 0 0 Z " fill="#EEEEEE" transform="translate(312,72)"/>
<path d="M0 0 C7.92 0 15.84 0 24 0 C24 7.92 24 15.84 24 24 C16.08 24 8.16 24 0 24 C0 16.08 0 8.16 0 0 Z " fill="#FFFFFF" transform="translate(288,72)"/>
<path d="M0 0 C7.92 0 15.84 0 24 0 C24 7.92 24 15.84 24 24 C16.08 24 8.16 24 0 24 C0 16.08 0 8.16 0 0 Z " fill="#EEEEEE" transform="translate(264,72)"/>
<path d="M0 0 C7.92 0 15.84 0 24 0 C24 7.92 24 15.84 24 24 C16.08 24 8.16 24 0 24 C0 16.08 0 8.16 0 0 Z " fill="#EEEEEE" transform="translate(168,72)"/>
<path d="M0 0 C7.92 0 15.84 0 24 0 C24 7.92 24 15.84 24 24 C16.08 24 8.16 24 0 24 C0 16.08 0 8.16 0 0 Z " fill="#FFFFFF" transform="translate(144,72)"/>
<path d="M0 0 C7.92 0 15.84 0 24 0 C24 7.92 24 15.84 24 24 C16.08 24 8.16 24 0 24 C0 16.08 0 8.16 0 0 Z " fill="#EEEEEE" transform="translate(120,72)"/>
<path d="M0 0 C7.92 0 15.84 0 24 0 C24 7.92 24 15.84 24 24 C16.08 24 8.16 24 0 24 C0 16.08 0 8.16 0 0 Z " fill="#FFFFFF" transform="translate(96,72)"/>
<path d="M0 0 C7.92 0 15.84 0 24 0 C24 7.92 24 15.84 24 24 C16.08 24 8.16 24 0 24 C0 16.08 0 8.16 0 0 Z " fill="#EEEEEE" transform="translate(72,72)"/>
<path d="M0 0 C7.92 0 15.84 0 24 0 C24 7.92 24 15.84 24 24 C16.08 24 8.16 24 0 24 C0 16.08 0 8.16 0 0 Z " fill="#FFFFFF" transform="translate(48,72)"/>
<path d="M0 0 C7.92 0 15.84 0 24 0 C24 7.92 24 15.84 24 24 C16.08 24 8.16 24 0 24 C0 16.08 0 8.16 0 0 Z " fill="#EEEEEE" transform="translate(24,72)"/>
<path d="M0 0 C7.92 0 15.84 0 24 0 C24 7.92 24 15.84 24 24 C16.08 24 8.16 24 0 24 C0 16.08 0 8.16 0 0 Z " fill="#FFFFFF" transform="translate(0,72)"/>
<path d="M0 0 C7.92 0 15.84 0 24 0 C24 7.92 24 15.84 24 24 C16.08 24 8.16 24 0 24 C0 16.08 0 8.16 0 0 Z " fill="#EEEEEE" transform="translate(336,48)"/>
<path d="M0 0 C7.92 0 15.84 0 24 0 C24 7.92 24 15.84 24 24 C16.08 24 8.16 24 0 24 C0 16.08 0 8.16 0 0 Z " fill="#FFFFFF" transform="translate(312,48)"/>
<path d="M0 0 C7.92 0 15.84 0 24 0 C24 7.92 24 15.84 24 24 C16.08 24 8.16 24 0 24 C0 16.08 0 8.16 0 0 Z " fill="#EEEEEE" transform="translate(288,48)"/>
<path d="M0 0 C7.92 0 15.84 0 24 0 C24 7.92 24 15.84 24 24 C16.08 24 8.16 24 0 24 C0 16.08 0 8.16 0 0 Z " fill="#FFFFFF" transform="translate(264,48)"/>
<path d="M0 0 C7.92 0 15.84 0 24 0 C24 7.92 24 15.84 24 24 C16.08 24 8.16 24 0 24 C0 16.08 0 8.16 0 0 Z " fill="#FFFFFF" transform="translate(168,48)"/>
<path d="M0 0 C7.92 0 15.84 0 24 0 C24 7.92 24 15.84 24 24 C16.08 24 8.16 24 0 24 C0 16.08 0 8.16 0 0 Z " fill="#EEEEEE" transform="translate(144,48)"/>
<path d="M0 0 C7.92 0 15.84 0 24 0 C24 7.92 24 15.84 24 24 C16.08 24 8.16 24 0 24 C0 16.08 0 8.16 0 0 Z " fill="#FFFFFF" transform="translate(120,48)"/>
<path d="M0 0 C7.92 0 15.84 0 24 0 C24 7.92 24 15.84 24 24 C16.08 24 8.16 24 0 24 C0 16.08 0 8.16 0 0 Z " fill="#EEEEEE" transform="translate(96,48)"/>
<path d="M0 0 C7.92 0 15.84 0 24 0 C24 7.92 24 15.84 24 24 C16.08 24 8.16 24 0 24 C0 16.08 0 8.16 0 0 Z " fill="#FFFFFF" transform="translate(72,48)"/>
<path d="M0 0 C7.92 0 15.84 0 24 0 C24 7.92 24 15.84 24 24 C16.08 24 8.16 24 0 24 C0 16.08 0 8.16 0 0 Z " fill="#EEEEEE" transform="translate(48,48)"/>
<path d="M0 0 C7.92 0 15.84 0 24 0 C24 7.92 24 15.84 24 24 C16.08 24 8.16 24 0 24 C0 16.08 0 8.16 0 0 Z " fill="#FFFFFF" transform="translate(24,48)"/>
<path d="M0 0 C7.92 0 15.84 0 24 0 C24 7.92 24 15.84 24 24 C16.08 24 8.16 24 0 24 C0 16.08 0 8.16 0 0 Z " fill="#EEEEEE" transform="translate(0,48)"/>
<path d="M0 0 C7.92 0 15.84 0 24 0 C24 7.92 24 15.84 24 24 C16.08 24 8.16 24 0 24 C0 16.08 0 8.16 0 0 Z " fill="#FFFFFF" transform="translate(336,24)"/>
<path d="M0 0 C7.92 0 15.84 0 24 0 C24 7.92 24 15.84 24 24 C16.08 24 8.16 24 0 24 C0 16.08 0 8.16 0 0 Z " fill="#EEEEEE" transform="translate(312,24)"/>
<path d="M0 0 C7.92 0 15.84 0 24 0 C24 7.92 24 15.84 24 24 C16.08 24 8.16 24 0 24 C0 16.08 0 8.16 0 0 Z " fill="#FFFFFF" transform="translate(288,24)"/>
<path d="M0 0 C7.92 0 15.84 0 24 0 C24 7.92 24 15.84 24 24 C16.08 24 8.16 24 0 24 C0 16.08 0 8.16 0 0 Z " fill="#EEEEEE" transform="translate(264,24)"/>
<path d="M0 0 C7.92 0 15.84 0 24 0 C24 7.92 24 15.84 24 24 C16.08 24 8.16 24 0 24 C0 16.08 0 8.16 0 0 Z " fill="#FFFFFF" transform="translate(240,24)"/>
<path d="M0 0 C7.92 0 15.84 0 24 0 C24 7.92 24 15.84 24 24 C16.08 24 8.16 24 0 24 C0 16.08 0 8.16 0 0 Z " fill="#EEEEEE" transform="translate(168,24)"/>
<path d="M0 0 C7.92 0 15.84 0 24 0 C24 7.92 24 15.84 24 24 C16.08 24 8.16 24 0 24 C0 16.08 0 8.16 0 0 Z " fill="#FFFFFF" transform="translate(144,24)"/>
<path d="M0 0 C7.92 0 15.84 0 24 0 C24 7.92 24 15.84 24 24 C16.08 24 8.16 24 0 24 C0 16.08 0 8.16 0 0 Z " fill="#EEEEEE" transform="translate(120,24)"/>
<path d="M0 0 C7.92 0 15.84 0 24 0 C24 7.92 24 15.84 24 24 C16.08 24 8.16 24 0 24 C0 16.08 0 8.16 0 0 Z " fill="#FFFFFF" transform="translate(96,24)"/>
<path d="M0 0 C7.92 0 15.84 0 24 0 C24 7.92 24 15.84 24 24 C16.08 24 8.16 24 0 24 C0 16.08 0 8.16 0 0 Z " fill="#EEEEEE" transform="translate(72,24)"/>
<path d="M0 0 C7.92 0 15.84 0 24 0 C24 7.92 24 15.84 24 24 C16.08 24 8.16 24 0 24 C0 16.08 0 8.16 0 0 Z " fill="#FFFFFF" transform="translate(48,24)"/>
<path d="M0 0 C7.92 0 15.84 0 24 0 C24 7.92 24 15.84 24 24 C16.08 24 8.16 24 0 24 C0 16.08 0 8.16 0 0 Z " fill="#EEEEEE" transform="translate(24,24)"/>
<path d="M0 0 C7.92 0 15.84 0 24 0 C24 7.92 24 15.84 24 24 C16.08 24 8.16 24 0 24 C0 16.08 0 8.16 0 0 Z " fill="#FFFFFF" transform="translate(0,24)"/>
<path d="M0 0 C7.92 0 15.84 0 24 0 C24 7.92 24 15.84 24 24 C16.08 24 8.16 24 0 24 C0 16.08 0 8.16 0 0 Z " fill="#EEEEEE" transform="translate(336,0)"/>
<path d="M0 0 C7.92 0 15.84 0 24 0 C24 7.92 24 15.84 24 24 C16.08 24 8.16 24 0 24 C0 16.08 0 8.16 0 0 Z " fill="#FFFFFF" transform="translate(312,0)"/>
<path d="M0 0 C7.92 0 15.84 0 24 0 C24 7.92 24 15.84 24 24 C16.08 24 8.16 24 0 24 C0 16.08 0 8.16 0 0 Z " fill="#EEEEEE" transform="translate(288,0)"/>
<path d="M0 0 C7.92 0 15.84 0 24 0 C24 7.92 24 15.84 24 24 C16.08 24 8.16 24 0 24 C0 16.08 0 8.16 0 0 Z " fill="#FFFFFF" transform="translate(264,0)"/>
<path d="M0 0 C7.92 0 15.84 0 24 0 C24 7.92 24 15.84 24 24 C16.08 24 8.16 24 0 24 C0 16.08 0 8.16 0 0 Z " fill="#EEEEEE" transform="translate(240,0)"/>
<path d="M0 0 C7.92 0 15.84 0 24 0 C24 7.92 24 15.84 24 24 C16.08 24 8.16 24 0 24 C0 16.08 0 8.16 0 0 Z " fill="#FFFFFF" transform="translate(216,0)"/>
<path d="M0 0 C7.92 0 15.84 0 24 0 C24 7.92 24 15.84 24 24 C16.08 24 8.16 24 0 24 C0 16.08 0 8.16 0 0 Z " fill="#EEEEEE" transform="translate(192,0)"/>
<path d="M0 0 C7.92 0 15.84 0 24 0 C24 7.92 24 15.84 24 24 C16.08 24 8.16 24 0 24 C0 16.08 0 8.16 0 0 Z " fill="#FFFFFF" transform="translate(168,0)"/>
<path d="M0 0 C7.92 0 15.84 0 24 0 C24 7.92 24 15.84 24 24 C16.08 24 8.16 24 0 24 C0 16.08 0 8.16 0 0 Z " fill="#EEEEEE" transform="translate(144,0)"/>
<path d="M0 0 C7.92 0 15.84 0 24 0 C24 7.92 24 15.84 24 24 C16.08 24 8.16 24 0 24 C0 16.08 0 8.16 0 0 Z " fill="#FFFFFF" transform="translate(120,0)"/>
<path d="M0 0 C7.92 0 15.84 0 24 0 C24 7.92 24 15.84 24 24 C16.08 24 8.16 24 0 24 C0 16.08 0 8.16 0 0 Z " fill="#EEEEEE" transform="translate(96,0)"/>
<path d="M0 0 C7.92 0 15.84 0 24 0 C24 7.92 24 15.84 24 24 C16.08 24 8.16 24 0 24 C0 16.08 0 8.16 0 0 Z " fill="#FFFFFF" transform="translate(72,0)"/>
<path d="M0 0 C7.92 0 15.84 0 24 0 C24 7.92 24 15.84 24 24 C16.08 24 8.16 24 0 24 C0 16.08 0 8.16 0 0 Z " fill="#EEEEEE" transform="translate(48,0)"/>
<path d="M0 0 C7.92 0 15.84 0 24 0 C24 7.92 24 15.84 24 24 C16.08 24 8.16 24 0 24 C0 16.08 0 8.16 0 0 Z " fill="#EEEEEE" transform="translate(0,0)"/>
<path d="M0 0 C2.34159546 3.5123932 3.19254288 6.96270105 4.1875 11 C4.37763672 11.72445312 4.56777344 12.44890625 4.76367188 13.1953125 C5.97509418 18.04100171 5.55441318 20.33676047 4 25 C-3.92 25 -11.84 25 -20 25 C-20 17.08 -20 9.16 -20 1 C-15.111875 0.6596875 -15.111875 0.6596875 -10.125 0.3125 C-8.58610107 0.19322144 -8.58610107 0.19322144 -7.01611328 0.0715332 C-6.20899902 0.02343506 -5.40188477 -0.02466309 -4.5703125 -0.07421875 C-3.74289551 -0.13182373 -2.91547852 -0.18942871 -2.06298828 -0.2487793 C-1.38220215 -0.16668213 -0.70141602 -0.08458496 0 0 Z " fill="#FEFEFE" transform="translate(212,119)"/>
<path d="M0 0 C2.76375 0.020625 5.5275 0.04125 8.375 0.0625 C8.375 7.9825 8.375 15.9025 8.375 24.0625 C0.455 24.0625 -7.465 24.0625 -15.625 24.0625 C-15.728125 21.38125 -15.83125 18.7 -15.9375 15.9375 C-15.98302002 15.10460449 -16.02854004 14.27170898 -16.07543945 13.41357422 C-16.15091463 9.3320712 -15.85580751 6.79630717 -13.23046875 3.5703125 C-8.97687023 -0.52385579 -5.62965325 -0.05895744 0 0 Z " fill="#EEEEEE" transform="translate(255.625,287.9375)"/>
<path d="M0 0 C2.701875 -0.103125 5.40375 -0.20625 8.1875 -0.3125 C9.02949951 -0.35802002 9.87149902 -0.40354004 10.73901367 -0.45043945 C15.01043564 -0.52913557 16.5563125 -0.3482464 20.05078125 2.39453125 C22 5 22 5 22 7 C22.66 7 23.32 7 24 7 C24 12.61 24 18.22 24 24 C16.08 24 8.16 24 0 24 C0 16.08 0 8.16 0 0 Z " fill="#EEEEEE" transform="translate(96,288)"/>
<path d="M0 0 C7.92 0 15.84 0 24 0 C24 4.29 24 8.58 24 13 C22.68 13.33 21.36 13.66 20 14 C20 17.3 20 20.6 20 24 C13.4 24 6.8 24 0 24 C0 16.08 0 8.16 0 0 Z " fill="#EEEEEE" transform="translate(72,216)"/>
<path d="M0 0 C7.92 0 15.84 0 24 0 C24 7.92 24 15.84 24 24 C17.73 24 11.46 24 5 24 C5 20.7 5 17.4 5 14 C3.35 14 1.7 14 0 14 C0 9.38 0 4.76 0 0 Z " fill="#FEFEFE" transform="translate(144,216)"/>
<path d="M0 0 C6.93 0.33 13.86 0.66 21 1 C21 8.92 21 16.84 21 25 C14.4 25 7.8 25 1 25 C1 31.6 1 38.2 1 45 C0.67 45 0.34 45 0 45 C0 30.15 0 15.3 0 0 Z " fill="#FEFEFE" transform="translate(267,143)"/>
<path d="M0 0 C7.92 0 15.84 0 24 0 C24 7.92 24 15.84 24 24 C17.4 24 10.8 24 4 24 C4 18.06 4 12.12 4 6 C1.525 5.01 1.525 5.01 -1 4 C-0.67 2.68 -0.34 1.36 0 0 Z " fill="#FEFEFE" transform="translate(264,192)"/>
<path d="M0 0 C7.92 0 15.84 0 24 0 C24 2.31 24 4.62 24 7 C23.67 6.34 23.34 5.68 23 5 C22.34 5 21.68 5 21 5 C19.35187352 8.29625296 19.61750669 11.99458475 19.4375 15.625 C19.293125 18.38875 19.14875 21.1525 19 24 C12.73 24 6.46 24 0 24 C0 16.08 0 8.16 0 0 Z " fill="#EEEEEE" transform="translate(192,144)"/>
<path d="M0 0 C6.6 0 13.2 0 20 0 C20 7.92 20 15.84 20 24 C13.4 24 6.8 24 0 24 C0 16.08 0 8.16 0 0 Z " fill="#EEEEEE" transform="translate(268,120)"/>
<path d="M0 0 C6.6 0 13.2 0 20 0 C20 7.92 20 15.84 20 24 C13.4 24 6.8 24 0 24 C0 16.08 0 8.16 0 0 Z " fill="#EEEEEE" transform="translate(268,216)"/>
<path d="M0 0 C6.27 0 12.54 0 19 0 C19.06058594 1.40894531 19.12117188 2.81789063 19.18359375 4.26953125 C19.26800491 6.11719776 19.35265263 7.96485347 19.4375 9.8125 C19.47681641 10.74126953 19.51613281 11.67003906 19.55664062 12.62695312 C19.59853516 13.51962891 19.64042969 14.41230469 19.68359375 15.33203125 C19.72025146 16.15421143 19.75690918 16.9763916 19.79467773 17.82348633 C19.93427772 20.17905178 19.93427772 20.17905178 21 23 C20 24 20 24 18.05053711 24.11352539 C17.2178833 24.10828857 16.38522949 24.10305176 15.52734375 24.09765625 C14.71773193 24.09515869 13.90812012 24.09266113 13.07397461 24.09008789 C12.03893799 24.08098389 11.00390137 24.07187988 9.9375 24.0625 C6.658125 24.041875 3.37875 24.02125 0 24 C0 16.08 0 8.16 0 0 Z " fill="#EEEEEE" transform="translate(192,96)"/>
<path d="M0 0 C6.27 0 12.54 0 19 0 C19 7.92 19 15.84 19 24 C12.73 24 6.46 24 0 24 C0 16.08 0 8.16 0 0 Z " fill="#FEFEFE" transform="translate(192,216)"/>
<path d="M0 0 C6.27 0 12.54 0 19 0 C19 7.92 19 15.84 19 24 C12.73 24 6.46 24 0 24 C0 16.08 0 8.16 0 0 Z " fill="#EEEEEE" transform="translate(192,192)"/>
<path d="M0 0 C6.27 0 12.54 0 19 0 C19 7.92 19 15.84 19 24 C12.73 24 6.46 24 0 24 C0 16.08 0 8.16 0 0 Z " fill="#EEEEEE" transform="translate(192,48)"/>
<path d="M0 0 C7.92 0 15.84 0 24 0 C24 5.61 24 11.22 24 17 C16.08 17 8.16 17 0 17 C0 11.39 0 5.78 0 0 Z " fill="#EEEEEE" transform="translate(168,319)"/>
<path d="M0 0 C0.33 0 0.66 0 1 0 C1 11.88 1 23.76 1 36 C-4.0185405 31.69839385 -7.59057216 28.32756828 -11.1875 23.0625 C-11.59935547 22.48048828 -12.01121094 21.89847656 -12.43554688 21.29882812 C-20 10.47362817 -20 10.47362817 -20 7 C-19.13375 6.814375 -19.13375 6.814375 -18.25 6.625 C-15.95785175 6.07484649 -15.95785175 6.07484649 -13.875 4.875 C-13.25625 4.58625 -12.6375 4.2975 -12 4 C-11.34 4.33 -10.68 4.66 -10 5 C-9.67 4.34 -9.34 3.68 -9 3 C-8.34 2.67 -7.68 2.34 -7 2 C-6.34 2.66 -5.68 3.32 -5 4 C-5 3.34 -5 2.68 -5 2 C-4.01 2.33 -3.02 2.66 -2 3 C-1.34 2.01 -0.68 1.02 0 0 Z " fill="#575756" transform="translate(240,136)"/>
<path d="M0 0 C5.15151024 4.41558021 8.40714559 7.47282557 11.75 13 C12.12253906 13.59039062 12.49507812 14.18078125 12.87890625 14.7890625 C19.11037812 24.78584069 19.11037812 24.78584069 18.75 28.75 C18 31 18 31 17 33 C16.34 33 15.68 33 15 33 C15 32.34 15 31.68 15 31 C11.99740483 30.66781808 11.99740483 30.66781808 10.3125 32.5 C9.879375 32.995 9.44625 33.49 9 34 C8.01 33.01 7.02 32.02 6 31 C5.01 32.485 5.01 32.485 4 34 C3.34 34 2.68 34 2 34 C1.505 36.475 1.505 36.475 1 39 C0.67 39 0.34 39 0 39 C0 26.13 0 13.26 0 0 Z " fill="#575656" transform="translate(241,62)"/>
<path d="M0 0 C1.093125 0.515625 2.18625 1.03125 3.3125 1.5625 C8.27580595 3.49734808 12.73835855 3.2568975 18 3 C16.68 2.34 15.36 1.68 14 1 C14 0.34 14 -0.32 14 -1 C21.58234929 -1.37290242 21.58234929 -1.37290242 23.75 0.5625 C24.36875 1.2740625 24.36875 1.2740625 25 2 C27.16299211 1.77242269 27.16299211 1.77242269 29 1 C25 5 25 5 23.25 6.6875 C21.88505747 7.81860632 21.88505747 7.81860632 22 9 C9.03899238 12.19742919 -4.06727639 11.98719379 -17.0625 9.1875 C-17.84246338 9.02233887 -18.62242676 8.85717773 -19.42602539 8.68701172 C-21.59765625 8.16796875 -21.59765625 8.16796875 -25 7 C-25.33 6.01 -25.66 5.02 -26 4 C-24 2 -24 2 -21 0 C-20.01 0.33 -19.02 0.66 -18 1 C-18 1.99 -18 2.98 -18 4 C-15.36 3.67 -12.72 3.34 -10 3 C-10 2.01 -10 1.02 -10 0 C-6.75748994 -1.62125503 -3.42986114 -0.73497024 0 0 Z " fill="#55CFCB" transform="translate(178,307)"/>
<path d="M0 0 C7.92 0 15.84 0 24 0 C24 4.62 24 9.24 24 14 C16.08 14 8.16 14 0 14 C0 9.38 0 4.76 0 0 Z " fill="#EEEEEE" transform="translate(120,216)"/>
<path d="M0 0 C10.33561662 3.44520554 21.15968878 9.25362453 28 18 C28.54690267 20.95110846 28.0988849 22.13068942 27 25 C26.67 25 26.34 25 26 25 C26 23.35 26 21.7 26 20 C25.01 20.33 24.02 20.66 23 21 C22.01 19.68 21.02 18.36 20 17 C17.69 17.33 15.38 17.66 13 18 C12.67 18.99 12.34 19.98 12 21 C11.34 20.34 10.68 19.68 10 19 C9.34 19 8.68 19 8 19 C8 18.34 8 17.68 8 17 C7.34 17 6.68 17 6 17 C5.67 17.66 5.34 18.32 5 19 C4.01 18.67 3.02 18.34 2 18 C2 18.66 2 19.32 2 20 C2.66 20.33 3.32 20.66 4 21 C3.34 21 2.68 21 2 21 C1.67 24.63 1.34 28.26 1 32 C0.67 32 0.34 32 0 32 C0 21.44 0 10.88 0 0 Z " fill="#1F201D" transform="translate(213,43)"/>
<path d="M0 0 C6.27 0 12.54 0 19 0 C19 6.27 19 12.54 19 19 C18.01 19.33 17.02 19.66 16 20 C8.75015692 16.2103093 3.05937997 9.55846816 0 2 C0 1.34 0 0.68 0 0 Z " fill="#EAEFEF" transform="translate(149,240)"/>
<path d="M0 0 C6.27 0 12.54 0 19 0 C16.31276283 8.06171151 12.30528221 14.40188941 5 19 C3.35 19 1.7 19 0 19 C0 12.73 0 6.46 0 0 Z " fill="#ECEEEE" transform="translate(192,240)"/>
<path d="M0 0 C1.7325 0.99 1.7325 0.99 3.5 2 C10.53709309 5.9195366 17.78487729 9.42275429 25 13 C25 20.92 25 28.84 25 37 C24.67 37 24.34 37 24 37 C23.67 30.07 23.34 23.14 23 16 C17.54437279 14.59577396 17.54437279 14.59577396 12 14 C11.67 14.66 11.34 15.32 11 16 C9.68 15.34 8.36 14.68 7 14 C7 13.34 7 12.68 7 12 C6.54625 12.495 6.0925 12.99 5.625 13.5 C4 15 4 15 2 15 C2 16.32 2 17.64 2 19 C1.34 19 0.68 19 0 19 C0 12.73 0 6.46 0 0 Z " fill="#078F87" transform="translate(241,184)"/>
<path d="M0 0 C2.90907818 1.45453909 3.2863278 3.50214336 4.625 6.4375 C7.65035848 12.69040675 11.45075231 17.7810661 16 23 C15.34 23.33 14.68 23.66 14 24 C12.31923769 23.36971413 10.65204456 22.70211894 9 22 C8.34 22 7.68 22 7 22 C5.63823419 20.01924973 4.30406884 18.01920337 3 16 C2.67 16 2.34 16 2 16 C1.67 39.43 1.34 62.86 1 87 C0.67 87 0.34 87 0 87 C0 58.29 0 29.58 0 0 Z " fill="#6DCBC7" transform="translate(212,148)"/>
<path d="M0 0 C10.33561662 3.44520554 21.15968878 9.25362453 28 18 C28.54690267 20.95110846 28.0988849 22.13068942 27 25 C26.67 25 26.34 25 26 25 C26 23.35 26 21.7 26 20 C25.01 20.33 24.02 20.66 23 21 C22.67 19.9275 22.34 18.855 22 17.75 C20.28688912 13.67312554 17.90579707 12.48519158 13.9375 10.82421875 C12 10 12 10 9 8 C5.87478167 7.83300768 5.87478167 7.83300768 3 8 C1.79483714 12.89154337 1.66538566 17.80275122 1.4375 22.8125 C1.39431641 23.69615234 1.35113281 24.57980469 1.30664062 25.49023438 C1.20108464 27.65999623 1.10008929 29.8299791 1 32 C0.67 32 0.34 32 0 32 C0 21.44 0 10.88 0 0 Z " fill="#10100E" transform="translate(213,43)"/>
<path d="M0 0 C6.32349089 4.77488087 10.01486165 10.19256003 14 17 C11.525 16.01 11.525 16.01 9 15 C8.67 15.66 8.34 16.32 8 17 C7.01 15.68 6.02 14.36 5 13 C2.48916886 14.25541557 2.12874554 15.50063488 1 18 C0.67 18 0.34 18 0 18 C0 12.06 0 6.12 0 0 Z " fill="#5F5F5F" transform="translate(241,62)"/>
<path d="M0 0 C0.66 0 1.32 0 2 0 C2 0.66 2 1.32 2 2 C6.62 2 11.24 2 16 2 C16.33 5.63 16.66 9.26 17 13 C13.07289862 13 12.04272956 11.67475926 9.0625 9.1875 C5.44647589 6.17985485 5.44647589 6.17985485 1.68359375 3.36328125 C1.12800781 2.91339844 0.57242188 2.46351562 0 2 C0 1.34 0 0.68 0 0 Z " fill="#F9F8F8" transform="translate(224,46)"/>
<path d="M0 0 C3 2 3 2 6 4 C6.66 3.67 7.32 3.34 8 3 C8 3.66 8 4.32 8 5 C8.66 5.33 9.32 5.66 10 6 C9.67 6.99 9.34 7.98 9 9 C8.34 8.67 7.68 8.34 7 8 C6.34 8.66 5.68 9.32 5 10 C5.35299007 13.44165321 6.04581692 15.06872538 8 18 C8 18.99 8 19.98 8 21 C8.66 21.33 9.32 21.66 10 22 C11.6875 24.4375 11.6875 24.4375 13 27 C12.67 27.66 12.34 28.32 12 29 C6.70552487 22.20176861 -1.72903479 11.18851126 -0.65625 2.08203125 C-0.4396875 1.39496094 -0.223125 0.70789063 0 0 Z " fill="#38B1AA" transform="translate(98,253)"/>
<path d="M0 0 C3.625 0.125 3.625 0.125 6.625 1.125 C7.8934375 0.8465625 7.8934375 0.8465625 9.1875 0.5625 C10.3940625 0.3459375 10.3940625 0.3459375 11.625 0.125 C12.285 0.785 12.945 1.445 13.625 2.125 C12.625 4.125 12.625 4.125 10.25 5.25 C7.625 6.125 7.625 6.125 4.625 6.125 C4.295 6.785 3.965 7.445 3.625 8.125 C2.635 8.125 1.645 8.125 0.625 8.125 C0.295 7.135 -0.035 6.145 -0.375 5.125 C-1.365 6.115 -2.355 7.105 -3.375 8.125 C-4.365 7.795 -5.355 7.465 -6.375 7.125 C-4.15011962 0.15370813 -4.15011962 0.15370813 0 0 Z " fill="#31B4AC" transform="translate(225.375,218.875)"/>
<path d="M0 0 C2.52775351 3.79163027 2.22443035 6.80874031 2.125 11.1875 C2.11597656 11.93708984 2.10695312 12.68667969 2.09765625 13.45898438 C2.07412578 15.30612654 2.03825561 17.15310412 2 19 C-1.62993774 16.66849952 -4.55845281 14.68590746 -5.6875 10.375 C-5.91240709 7.90102197 -6.03435318 5.48324387 -6 3 C-5.01 4.485 -5.01 4.485 -4 6 C-3.34 5.01 -2.68 4.02 -2 3 C-2 3.66 -2 4.32 -2 5 C-1.34 5 -0.68 5 0 5 C0 3.35 0 1.7 0 0 Z " fill="#626262" transform="translate(239,153)"/>
<path d="M0 0 C2.05078125 0.03255208 4.1015625 0.06510417 6.15234375 0.09765625 C6.15234375 1.08765625 6.15234375 2.07765625 6.15234375 3.09765625 C8.62734375 4.08765625 8.62734375 4.08765625 11.15234375 5.09765625 C11.15234375 7.40765625 11.15234375 9.71765625 11.15234375 12.09765625 C5.36316021 9.42572539 0.90766533 6.29733228 -2.84765625 1.09765625 C-1.84765625 0.09765625 -1.84765625 0.09765625 0 0 Z " fill="#ECF0F0" transform="translate(228.84765625,167.90234375)"/>
<path d="M0 0 C0.4640625 0.268125 0.928125 0.53625 1.40625 0.8125 C9.11737719 5.18597512 17.0593447 9.06303645 25 13 C25 20.92 25 28.84 25 37 C24.67 37 24.34 37 24 37 C23.505 25.615 23.505 25.615 23 14 C20.69 13.34 18.38 12.68 16 12 C14.09394793 11.08274438 12.2156403 10.10482224 10.375 9.0625 C9.47523438 8.55847656 8.57546875 8.05445313 7.6484375 7.53515625 C6.77445313 7.02855469 5.90046875 6.52195313 5 6 C4.06414062 5.50371094 3.12828125 5.00742188 2.1640625 4.49609375 C1.09285156 3.75552734 1.09285156 3.75552734 0 3 C0 2.01 0 1.02 0 0 Z " fill="#13867E" transform="translate(241,184)"/>
<path d="M0 0 C0.66 0 1.32 0 2 0 C0.60736986 5.26638293 -1.77084839 8.72224086 -5.125 12.875 C-5.59292969 13.46796875 -6.06085938 14.0609375 -6.54296875 14.671875 C-7.68785592 16.12050774 -8.84290317 17.56110099 -10 19 C-11.32 17.35 -12.64 15.7 -14 14 C-13.34 12.68 -12.68 11.36 -12 10 C-11.21625 10.04125 -10.4325 10.0825 -9.625 10.125 C-6.83883881 10.28728734 -6.83883881 10.28728734 -5 8 C-4.34 7.34 -3.68 6.68 -3 6 C-2.67 5.01 -2.34 4.02 -2 3 C-1.34 3 -0.68 3 0 3 C0 2.01 0 1.02 0 0 Z " fill="#42BBB3" transform="translate(254,271)"/>
<path d="M0 0 C6.10122535 0.17704449 12.09286726 1.56162016 18 3 C18 3.33 18 3.66 18 4 C16.54182203 4.16802051 15.0834516 4.33437143 13.625 4.5 C12.40683594 4.63921875 12.40683594 4.63921875 11.1640625 4.78125 C9 5 9 5 7 5 C6.67 5.99 6.34 6.98 6 8 C3.5625 7.625 3.5625 7.625 1 7 C0.67 6.34 0.34 5.68 0 5 C0.99 4.67 1.98 4.34 3 4 C1.68 3.01 0.36 2.02 -1 1 C-0.67 0.67 -0.34 0.34 0 0 Z " fill="#159D94" transform="translate(163,261)"/>
<path d="M0 0 C5.98801921 3.05771194 11.74746308 6.70642633 16 12 C16.48255755 14.87907932 15.9978969 16.18240875 15 19 C14.67 19 14.34 19 14 19 C14 17.35 14 15.7 14 14 C13.01 14.33 12.02 14.66 11 15 C10.67 13.96875 10.34 12.9375 10 11.875 C8.24225298 7.64783277 5.39106018 5.72565219 1.64453125 3.26171875 C1.10183594 2.84535156 0.55914062 2.42898437 0 2 C0 1.34 0 0.68 0 0 Z " fill="#171716" transform="translate(225,49)"/>
<path d="M0 0 C1.2065625 0.0309375 1.2065625 0.0309375 2.4375 0.0625 C2.4375 0.7225 2.4375 1.3825 2.4375 2.0625 C3.7575 2.3925 5.0775 2.7225 6.4375 3.0625 C4.40406405 5.09593595 3.15128378 6.15465147 0.4375 7.0625 C-1.921875 6.1640625 -1.921875 6.1640625 -4.3125 4.6875 C-5.11171875 4.20539063 -5.9109375 3.72328125 -6.734375 3.2265625 C-7.33765625 2.84242188 -7.9409375 2.45828125 -8.5625 2.0625 C-8.5625 1.7325 -8.5625 1.4025 -8.5625 1.0625 C-7.3559375 1.0934375 -7.3559375 1.0934375 -6.125 1.125 C-3.0866539 1.050894 -3.0383461 0.074106 0 0 Z " fill="#57CCC7" transform="translate(144.5625,303.9375)"/>
<path d="M0 0 C2.01628887 3.49374193 2.72071005 6.93619753 3.5 10.875 C4.39642453 15.38635387 5.46149686 19.6630127 7 24 C5.68 24 4.36 24 3 24 C1.04170706 15.91038514 -0.51917486 8.34525522 0 0 Z " fill="#DCF6F5" transform="translate(93,240)"/>
<path d="M0 0 C1.65 0.33 3.3 0.66 5 1 C3.35 4.96 1.7 8.92 0 13 C-0.99 12.01 -1.98 11.02 -3 10 C-2.649375 9.21625 -2.29875 8.4325 -1.9375 7.625 C-1.628125 6.75875 -1.31875 5.8925 -1 5 C-1.33 4.34 -1.66 3.68 -2 3 C-1.34 2.01 -0.68 1.02 0 0 Z " fill="#34B0A9" transform="translate(258,256)"/>
<path d="M0 0 C0.33 0.66 0.66 1.32 1 2 C-8.65653116 4.38222795 -18.13325025 4.19538118 -28 4 C-28 3.67 -28 3.34 -28 3 C-26.91460937 2.95101563 -25.82921875 2.90203125 -24.7109375 2.8515625 C-23.26560216 2.77648014 -21.82029081 2.70093472 -20.375 2.625 C-19.66214844 2.5940625 -18.94929687 2.563125 -18.21484375 2.53125 C-11.88152056 2.18262671 -6.34936426 -0.30235068 0 0 Z " fill="#77D3CE" transform="translate(199,314)"/>
<path d="M0 0 C0.33 0 0.66 0 1 0 C1.08333357 4.8333472 0.95261487 9.23692563 0 14 C-0.99 14 -1.98 14 -3 14 C-3.33 15.65 -3.66 17.3 -4 19 C-4.66 19 -5.32 19 -6 19 C-5.72736328 18.19949219 -5.72736328 18.19949219 -5.44921875 17.3828125 C-3.5063945 11.62408217 -1.71615568 5.83006078 0 0 Z " fill="#DAF5F5" transform="translate(264,250)"/>
<path d="M0 0 C0.66 0.33 1.32 0.66 2 1 C-0.87907188 4.94422302 -3.03019836 7.59870277 -7.625 9.5 C-10.73374601 9.96055496 -12.10584225 9.85940055 -15 9 C-14.25234375 8.60167969 -13.5046875 8.20335937 -12.734375 7.79296875 C-11.74953125 7.26316406 -10.7646875 6.73335938 -9.75 6.1875 C-8.77546875 5.66542969 -7.8009375 5.14335937 -6.796875 4.60546875 C-4.36644588 3.21034812 -2.19212301 1.73804039 0 0 Z " fill="#D8F9F8" transform="translate(231,300)"/>
<path d="M0 0 C4.54075781 4.14010271 7.71842138 8.82390176 11 14 C9.68 13.34 8.36 12.68 7 12 C7 11.34 7 10.68 7 10 C5.68 10 4.36 10 3 10 C2.49596232 8.70990357 1.99690074 7.41786211 1.5 6.125 C1.2215625 5.40570313 0.943125 4.68640625 0.65625 3.9453125 C0 2 0 2 0 0 Z " fill="#DEF9F9" transform="translate(106,277)"/>
<path d="M0 0 C0.66 0.33 1.32 0.66 2 1 C-1.04422227 6.42841405 -3.99386227 10.27450216 -9 14 C-9.33 13.34 -9.66 12.68 -10 12 C-9.360625 11.566875 -8.72125 11.13375 -8.0625 10.6875 C-5.73253997 9.08760823 -5.73253997 9.08760823 -5 6 C-4.34 6 -3.68 6 -3 6 C-2.690625 5.195625 -2.38125 4.39125 -2.0625 3.5625 C-1 1 -1 1 0 0 Z " fill="#DFF9F9" transform="translate(208,243)"/>
<path d="M0 0 C1.98 0 3.96 0 6 0 C5.67 0.99 5.34 1.98 5 3 C5.33 3.99 5.66 4.98 6 6 C4.68 6.33 3.36 6.66 2 7 C0.4375 5.1875 0.4375 5.1875 -1 3 C-0.67 2.01 -0.34 1.02 0 0 Z " fill="#41BCB4" transform="translate(112,281)"/>
<path d="M0 0 C-0.33 0.99 -0.66 1.98 -1 3 C-4.23578704 4.31828361 -7.55214012 4.07836045 -11 4 C-11.33 3.34 -11.66 2.68 -12 2 C-10.75579353 1.4654744 -9.50429064 0.94791389 -8.25 0.4375 C-7.55390625 0.14746094 -6.8578125 -0.14257812 -6.140625 -0.44140625 C-3.69987216 -1.07831803 -2.3596345 -0.80248831 0 0 Z " fill="#239F97" transform="translate(199,260)"/>
<path d="M0 0 C0.99 0.33 1.98 0.66 3 1 C4.10213621 3.72633694 5 6.04144033 5 9 C2.525 8.01 2.525 8.01 0 7 C0 4.69 0 2.38 0 0 Z " fill="#51CEC9" transform="translate(214,157)"/>
<path d="M0 0 C0.66 0 1.32 0 2 0 C2.66 1.98 3.32 3.96 4 6 C-0.75 7 -0.75 7 -3 7 C-1.125 1.125 -1.125 1.125 0 0 Z " fill="#30B5AE" transform="translate(236,255)"/>
<path d="M0 0 C0.66 0 1.32 0 2 0 C2.33 0.66 2.66 1.32 3 2 C3.99 2 4.98 2 6 2 C7.75 4.375 7.75 4.375 9 7 C8.67 7.66 8.34 8.32 8 9 C6.65826597 8.07456291 5.32679841 7.13422595 4 6.1875 C3.2575 5.66542969 2.515 5.14335937 1.75 4.60546875 C1.1725 4.07566406 0.595 3.54585937 0 3 C0 2.01 0 1.02 0 0 Z " fill="#151513" transform="translate(241,170)"/>
<path d="M0 0 C0 3.60573896 -0.81707462 4.41336566 -3 7.1875 C-3.556875 7.90292969 -4.11375 8.61835938 -4.6875 9.35546875 C-5.120625 9.89816406 -5.55375 10.44085938 -6 11 C-7.32 10.34 -8.64 9.68 -10 9 C-9.44570312 8.51789063 -8.89140625 8.03578125 -8.3203125 7.5390625 C-7.59585938 6.90742188 -6.87140625 6.27578125 -6.125 5.625 C-5.40570313 4.99851562 -4.68640625 4.37203125 -3.9453125 3.7265625 C-2.5923402 2.52573166 -1.2791655 1.2791655 0 0 Z " fill="#E6FCFC" transform="translate(244,289)"/>
<path d="M0 0 C0 3.86695678 -1.41909971 6.5088452 -3 10 C-4.32 9.67 -5.64 9.34 -7 9 C-6.02180976 7.68677212 -5.0424189 6.37443848 -4.0625 5.0625 C-3.51722656 4.33160156 -2.97195312 3.60070312 -2.41015625 2.84765625 C-1 1 -1 1 0 0 Z " fill="#39BEB6" transform="translate(230,266)"/>
<path d="M0 0 C1.125 1.6875 1.125 1.6875 2 4 C1.3125 6.6875 1.3125 6.6875 0 9 C-0.99 9.33 -1.98 9.66 -3 10 C-3 7.16032769 -2.59732819 4.76264289 -2 2 C-1.34 2 -0.68 2 0 2 C0 1.34 0 0.68 0 0 Z " fill="#2CA9A2" transform="translate(148,238)"/>
<path d="M0 0 C1.98 0.99 3.96 1.98 6 3 C6 3.99 6 4.98 6 6 C6.66 6 7.32 6 8 6 C7.67 6.66 7.34 7.32 7 8 C1.21538462 4.55384615 1.21538462 4.55384615 0.125 1.75 C0.08375 1.1725 0.0425 0.595 0 0 Z " fill="#121211" transform="translate(252,177)"/>
<path d="M0 0 C0.99 0 1.98 0 3 0 C3.33 1.98 3.66 3.96 4 6 C2.68 6.33 1.36 6.66 0 7 C0 4.69 0 2.38 0 0 Z " fill="#343432" transform="translate(242,136)"/>
<path d="M0 0 C0.99 0.33 1.98 0.66 3 1 C4.1875 3.5625 4.1875 3.5625 5 6 C2 7 2 7 -1 7 C-0.7525 6.1028125 -0.7525 6.1028125 -0.5 5.1875 C0.1114124 2.88655664 0.1114124 2.88655664 0 0 Z " fill="#30B5AE" transform="translate(122,255)"/>
<path d="M0 0 C3.71888239 0.50712033 6.73454239 1.11608215 10 3 C10 3.66 10 4.32 10 5 C6.08788267 3.84414715 3.1254959 2.64465038 0 0 Z " fill="#DAF7F7" transform="translate(253,191)"/>
<path d="M0 0 C4.875 4.75 4.875 4.75 6 7 C4.02 6.34 2.04 5.68 0 5 C0 3.35 0 1.7 0 0 Z " fill="#5AC6C0" transform="translate(222,165)"/>
<path d="M0 0 C-0.33 1.32 -0.66 2.64 -1 4 C-1.99 4 -2.98 4 -4 4 C-4.66 3.01 -5.32 2.02 -6 1 C-3 0 -3 0 0 0 Z " fill="#2CADA5" transform="translate(108,244)"/>
</svg>
